<mxfile host="app.diagrams.net" modified="2023-08-03T13:25:22.046Z" agent="Mozilla/5.0 (Windows NT 10.0; Win64; x64) AppleWebKit/537.36 (KHTML, like Gecko) Chrome/115.0.0.0 Safari/537.36" version="21.6.6" etag="WqdCtCrkDrjQTsgEgwsk" type="github">
  <diagram name="Page-1" id="e4K3N3tYqRHN2GGtY0GF">
    <mxGraphModel>
      <root>
        <mxCell id="0" />
        <mxCell id="1" parent="0" />
      </root>
    </mxGraphModel>
  </diagram>
</mxfile>
